<svg width="33" height="30" viewBox="0 0 33 30" fill="none" xmlns="http://www.w3.org/2000/svg">
<path d="M1.22266 10.0228H8.03038V29.2357H1.22266V10.0228Z" fill="white"/>
<path d="M4.68005 0.767578C2.33922 0.767578 0.814453 2.19597 0.814453 4.08708C0.814453 5.93795 2.29626 7.40658 4.57266 7.40658H4.61562C6.9994 7.40658 8.48122 5.93795 8.48122 4.08708C8.43827 2.19597 7.02088 0.767578 4.68005 0.767578Z" fill="white"/>
<path d="M24.7817 9.57935C21.1739 9.57935 19.5417 11.4503 18.6398 12.758V10.0219H11.832V29.2348H18.6398V18.5118C18.6398 17.9284 18.6827 17.3651 18.8545 16.9627C19.3484 15.816 20.4652 14.629 22.355 14.629C24.8247 14.629 25.8126 16.3994 25.8126 18.9745V29.2549H32.6203V18.2302C32.6203 12.3154 29.2701 9.57935 24.7817 9.57935Z" fill="white"/>
</svg>
