<svg width="36" height="28" viewBox="0 0 36 28" fill="none" xmlns="http://www.w3.org/2000/svg">
<path d="M11.2532 27.1509C24.5036 27.1509 31.7623 16.8705 31.7623 7.938C31.7623 7.63622 31.7623 7.35457 31.7408 7.07291C33.1582 6.12736 34.3609 4.92027 35.3273 3.57235C34.0387 4.11554 32.6428 4.47767 31.1825 4.63861C32.6643 3.79365 33.8025 2.48597 34.3609 0.896631C32.965 1.66112 31.4187 2.22443 29.7866 2.5262C28.4766 1.21852 26.6082 0.393677 24.5251 0.393677C20.5521 0.393677 17.3093 3.4114 17.3093 7.15339C17.3093 7.67646 17.3737 8.19953 17.5026 8.70249C11.5109 8.42083 6.2065 5.725 2.64156 1.641C2.01877 2.64691 1.67516 3.79365 1.67516 5.04098C1.67516 7.37469 2.94222 9.44686 4.87502 10.654C3.69387 10.6137 2.57713 10.3119 1.61073 9.80899C1.61073 9.82911 1.61073 9.86934 1.61073 9.88946C1.61073 13.1687 4.1019 15.8847 7.38765 16.5083C6.78633 16.6693 6.14207 16.7498 5.47633 16.7498C5.00387 16.7498 4.55287 16.7095 4.12336 16.6291C5.04681 19.3048 7.70978 21.2562 10.8667 21.3166C8.397 23.1272 5.28304 24.2136 1.91139 24.2136C1.33155 24.2136 0.751722 24.1734 0.193359 24.113C3.39321 26.0444 7.17288 27.1509 11.2532 27.1509Z" fill="white"/>
</svg>
