<svg width="37" height="24" viewBox="0 0 37 24" fill="none" xmlns="http://www.w3.org/2000/svg">
<path d="M0.949139 17.0422C1.16389 20.0197 3.7839 22.6552 6.9408 23.0375C9.08835 23.299 11.2574 23.4197 13.4049 23.5002C16.884 23.641 20.3845 23.641 23.885 23.5002C26.054 23.3996 28.2015 23.299 30.3491 23.0375C33.463 22.6552 36.083 20.0399 36.3193 17.1428C36.577 13.944 36.534 10.7452 36.3837 7.52634C36.2763 5.31334 35.3958 3.5027 33.506 2.13467C32.1745 1.16899 30.6283 0.867219 29.0176 0.726392C25.3453 0.444737 21.6515 0.263674 17.9792 0.384383C16.7551 0.384383 15.531 0.364265 14.2854 0.384383C13.0613 0.404501 11.8372 0.484974 10.6131 0.565447C9.389 0.645919 8.1649 0.726392 6.9408 0.887338C3.7839 1.26958 1.18537 3.90507 0.949139 6.90268C0.691433 10.2825 0.691433 13.6624 0.949139 17.0422ZM15.3162 7.32516C15.3162 7.06362 15.3377 6.96303 15.6384 7.14409C18.3872 8.71331 21.1361 10.2825 23.885 11.8518C23.9494 11.892 24.0138 11.892 24.0353 12.0127C23.0259 12.5961 22.0166 13.1796 21.0072 13.763C19.2248 14.7689 17.4638 15.7949 15.6813 16.8008C15.5954 16.8612 15.5095 16.9618 15.4021 16.9215C15.2733 16.8612 15.3377 16.7405 15.3377 16.6399C15.3162 13.5216 15.3162 10.4234 15.3162 7.32516Z" fill="white"/>
</svg>
