<svg width="24" height="24" viewBox="0 0 24 24" fill="none" xmlns="http://www.w3.org/2000/svg">
<path d="M20.1731 23.9986C19.564 23.9986 18.9534 23.766 18.4883 23.3024L12.0001 16.8154L5.51309 23.3024C4.58154 24.2324 3.07079 24.2324 2.14049 23.3024L0.697727 21.8594C-0.232576 20.9293 -0.232576 19.4171 0.697727 18.4868L7.18444 12.0001L0.697727 5.51309C-0.232576 4.58154 -0.232576 3.0693 0.697727 2.14049L2.14049 0.697727C3.0693 -0.231081 4.58154 -0.232576 5.51184 0.697727L12.0001 7.18444L18.4868 0.697727C19.4198 -0.232576 20.9306 -0.232576 21.8594 0.697727L23.3024 2.14049C24.2324 3.07079 24.2324 4.58303 23.3024 5.51309L16.8154 12.0001L23.3024 18.4868C24.2324 19.4171 24.2324 20.9293 23.3024 21.8594L21.8594 23.3024C21.3945 23.766 20.7839 23.9986 20.1731 23.9986ZM12.0001 14.3527C12.2707 14.3527 12.5304 14.46 12.7207 14.6518L19.9283 21.8594C20.0618 21.9913 20.2846 21.9913 20.4166 21.8594L21.8594 20.4166C21.9928 20.2846 21.9913 20.0603 21.8594 19.927L14.6518 12.7207C14.2533 12.3223 14.2533 11.6763 14.6518 11.2779L21.8594 4.07032C21.9913 3.93835 21.9928 3.71399 21.8594 3.58201L20.4166 2.14049C20.2834 2.00852 20.0618 2.00852 19.927 2.14049L12.7207 9.34809C12.3387 9.73032 11.6614 9.73032 11.2779 9.34809L4.07032 2.14049C3.9371 2.00852 3.71399 2.00852 3.58201 2.14049L2.14049 3.58351C2.00727 3.71523 2.00852 3.93959 2.14049 4.07306L9.34809 11.2792C9.74651 11.6776 9.74651 12.3238 9.34809 12.7222L2.14049 19.9298C2.00852 20.0618 2.00727 20.2861 2.14049 20.4178L3.58351 21.8609C3.71673 21.9928 3.93835 21.9928 4.07306 21.8609L11.2792 14.6533C11.4697 14.46 11.7294 14.3527 12.0001 14.3527Z" fill="white"/>
</svg>
