<svg width="95" height="60" viewBox="0 0 95 60" fill="none" xmlns="http://www.w3.org/2000/svg">
<g clip-path="url(#clip0_2100_1937)">
<path d="M30.4183 11.0486C30.3409 11.0486 30.2599 11.0409 30.1789 11.0293C29.5273 10.9214 29.0167 10.3969 28.8758 9.69502L28.2912 6.78343C28.2067 6.36694 28.2665 5.93117 28.4638 5.55709L30.9114 0.867699C31.3164 0.0887037 32.2145 -0.219809 32.954 0.165832L35.9546 1.73153C36.4406 1.98606 36.7716 2.48739 36.8385 3.06971C36.9055 3.65588 36.7012 4.22663 36.2856 4.60456C35.3524 5.45683 33.0456 7.71283 31.7778 10.1694C31.496 10.7208 30.9748 11.0448 30.4148 11.0448L30.4183 11.0486ZM30.4007 6.50963L30.6578 7.79381C31.7918 6.01986 33.2287 4.46959 34.2993 3.43221L32.4997 2.49125L30.4043 6.50963H30.4007Z" fill="#111C1A"/>
<path d="M50.7726 41.2718C50.7726 54.8232 41.5772 60.1451 30.23 60.1451C18.8829 60.1451 9.6875 54.8232 9.6875 41.2718C9.6875 29.4751 22.697 11.0723 30.23 11.0723C41.5737 11.0723 50.7726 27.7204 50.7726 41.2718Z" fill="url(#paint0_linear_2100_1937)"/>
<path d="M21.0385 59.8739C20.9328 59.8739 20.8236 59.8546 20.7145 59.816C12.8116 57.0278 8.63477 50.6146 8.63477 41.2705C8.63477 35.5592 11.498 27.9968 16.2946 21.0514C20.0101 15.6678 25.6238 9.91406 30.2338 9.91406C37.0555 9.91406 43.7152 15.5136 48.054 24.8924C48.3182 25.4631 48.1104 26.1573 47.5892 26.4465C47.0679 26.7357 46.434 26.5082 46.1699 25.9374C42.2607 17.4803 36.1539 12.2241 30.2338 12.2241C27.0748 12.2241 22.2676 16.2347 17.9816 22.4397C13.5195 28.903 10.7478 36.1145 10.7478 41.2628C10.7478 49.6235 14.3189 55.1228 21.3625 57.6063C21.9189 57.803 22.2218 58.4547 22.0457 59.064C21.9013 59.5538 21.4857 59.8661 21.042 59.8661L21.0385 59.8739Z" fill="#111C1A"/>
<path d="M24.3573 7.80271C23.8291 7.80271 23.3712 7.36694 23.3079 6.77691C23.2409 6.1406 23.6565 5.56985 24.2376 5.49658L29.161 4.87956C29.7386 4.80243 30.2634 5.26134 30.3303 5.89765C30.3972 6.53396 29.9816 7.1047 29.4005 7.17798L24.4771 7.795C24.4348 7.79886 24.3961 7.80271 24.3538 7.80271H24.3573Z" fill="#111C1A"/>
<path d="M6.54259 16.6941C4.48939 16.6941 2.52776 16.3201 0.685867 15.5681C0.397081 15.4524 0.171687 15.2017 0.0660334 14.8893C-0.03962 14.5731 -0.0184893 14.226 0.129425 13.9291C1.08383 12.0202 3.07011 8.04807 7.11311 5.45656C11.9908 2.33287 18.2384 2.26345 25.6835 5.24831C26.0286 5.38715 26.2822 5.71108 26.3561 6.10058C26.4301 6.49394 26.3139 6.89886 26.0462 7.17652C25.9124 7.31149 22.7533 10.5509 18.0799 13.2311C14.0651 15.5295 10.1665 16.6941 6.54611 16.6941H6.54259ZM2.60876 13.8211C11.0575 16.3586 19.8796 9.68704 23.2112 6.77545C17.1643 4.70842 12.1105 4.93595 8.17669 7.45418C5.33814 9.27055 3.62303 11.943 2.60876 13.8173V13.8211Z" fill="#111C1A"/>
<path d="M23.1065 31.6836C22.0535 31.6836 21.0885 31.9188 20.2046 32.3932C19.3417 32.8675 18.655 33.5347 18.1478 34.3985V31.9921H15.584V48.8986H18.1478V39.5507C18.1478 37.7806 18.5423 36.4347 19.3312 35.5092C20.1376 34.5836 21.2188 34.1208 22.5712 34.1208C23.9236 34.1208 24.9554 34.572 25.7267 35.4783C26.498 36.3614 26.8819 37.6495 26.8819 39.3347V48.8986H29.4175V38.9336C29.4175 36.5889 28.8364 34.7996 27.6707 33.5655C26.505 32.3122 24.9836 31.6836 23.1065 31.6836Z" fill="#111C1A"/>
<path d="M44.7345 41.2804C44.7345 43.0505 44.3401 44.3964 43.5512 45.3219C42.7623 46.2474 41.6812 46.7102 40.3112 46.7102C38.9412 46.7102 37.9269 46.2667 37.1557 45.3836C36.3844 44.4773 36.0005 43.1932 36.0005 41.5272V31.9941H33.4648V41.8974C33.4648 43.4592 33.736 44.7859 34.2819 45.8772C34.8454 46.9686 35.6061 47.79 36.564 48.3453C37.5219 48.8814 38.6031 49.1475 39.804 49.1475C40.8571 49.1475 41.815 48.9122 42.6778 48.4379C43.5618 47.9443 44.245 47.2655 44.7345 46.4017V48.9006H47.2984V31.9941H44.7345V41.2804Z" fill="#111C1A"/>
<path d="M54.7556 27.7363H52.1918V31.9938H50.1914V34.3077H52.1918V44.2726C52.1918 45.9193 52.5475 47.0994 53.2624 47.8205C53.9773 48.5417 55.0479 48.9003 56.4743 48.9003H58.7845V46.5248H56.8969C56.108 46.5248 55.5551 46.3589 55.2346 46.0311C54.9141 45.6802 54.7556 45.094 54.7556 44.2726V34.3077H58.7845V31.9938H54.7556V27.7363Z" fill="#111C1A"/>
<path d="M64.4545 34.7379V31.9921H61.8906V48.8986H64.4545V39.7049C64.4545 36.292 65.8914 34.5836 68.7651 34.5836H69.4413V31.6836C68.2404 31.6836 67.2156 31.9497 66.3703 32.4857C65.5427 33.0218 64.9053 33.7699 64.4545 34.7379Z" fill="#111C1A"/>
<path d="M73.7253 25.4219C73.2358 25.4219 72.8237 25.607 72.4857 25.9772C72.1476 26.3474 71.9785 26.7986 71.9785 27.3347C71.9785 27.8707 72.1476 28.3219 72.4857 28.6921C72.8237 29.0623 73.2358 29.2474 73.7253 29.2474C74.2148 29.2474 74.5882 29.0623 74.9086 28.6921C75.2467 28.3219 75.4158 27.8707 75.4158 27.3347C75.4158 26.7986 75.2467 26.3474 74.9086 25.9772C74.5882 25.607 74.1937 25.4219 73.7253 25.4219Z" fill="#111C1A"/>
<path d="M74.9642 31.9941H72.4004V48.9006H74.9642V31.9941Z" fill="#111C1A"/>
<path d="M94.0429 35.8489C93.4054 34.5339 92.5215 33.5158 91.3945 32.7946C90.2852 32.0735 89.0455 31.7148 87.6755 31.7148C86.3055 31.7148 85.168 32.0426 84.1537 32.7021C83.1571 33.3384 82.4069 34.1405 81.8998 35.1085V31.9925H79.3359V56.9203H81.8998V45.783C82.4245 46.751 83.1852 47.5608 84.1819 48.2203C85.1962 48.8566 86.3619 49.1767 87.6755 49.1767C88.9891 49.1767 90.2852 48.8065 91.3945 48.066C92.5215 47.3256 93.4054 46.2882 94.0429 44.95C94.6803 43.6119 95.0008 42.0924 95.0008 40.3841C95.0008 38.6757 94.6803 37.1447 94.0429 35.8489ZM91.6763 43.7777C91.2079 44.7225 90.5669 45.4552 89.7604 45.9681C88.9715 46.4618 88.0981 46.7086 87.1402 46.7086C86.1823 46.7086 85.3265 46.4618 84.52 45.9681C83.7311 45.4552 83.0937 44.7225 82.6041 43.7777C82.1358 42.8097 81.8998 41.6914 81.8998 40.4149C81.8998 39.1384 82.1358 38.0586 82.6041 37.1138C83.0937 36.1459 83.7311 35.417 84.52 34.9234C85.3265 34.4105 86.1999 34.1521 87.1402 34.1521C88.0805 34.1521 88.9715 34.3989 89.7604 34.8925C90.5669 35.3861 91.2079 36.1073 91.6763 37.0521C92.1446 37.9969 92.3806 39.1076 92.3806 40.3841C92.3806 41.6605 92.1446 42.8097 91.6763 43.7777Z" fill="#111C1A"/>
</g>
<defs>
<linearGradient id="paint0_linear_2100_1937" x1="30.23" y1="11.0723" x2="30.23" y2="60.1451" gradientUnits="userSpaceOnUse">
<stop offset="0.213542" stop-color="#EAFE9D"/>
<stop offset="1" stop-color="#2ACA4D"/>
</linearGradient>
<clipPath id="clip0_2100_1937">
<rect width="95" height="60" fill="white"/>
</clipPath>
</defs>
</svg>
