<svg width="189" height="189" viewBox="0 0 189 189" fill="none" xmlns="http://www.w3.org/2000/svg">
<path d="M177 94.5C177 140.063 140.063 177 94.5 177C48.9365 177 12 140.063 12 94.5C12 48.9365 48.9365 12 94.5 12C140.063 12 177 48.9365 177 94.5Z" fill="white" stroke="white" stroke-width="24"/>
<path d="M69.7225 61.7105L59.6504 72.235C59.6504 74.6794 66.3651 74.8378 69.7225 74.6115L82.1846 71.3862L93.9639 63.5777H100.622L103.182 67.1425L110.352 58.4852L104.719 55.939L101.817 61.7105L97.7196 62.5592L93.9639 61.7105L83.0382 59.8432L69.7225 61.7105Z" fill="#9CDE9B"/>
<path d="M102.813 69.2624C102.697 69.2624 102.577 69.2519 102.456 69.2362C101.486 69.0893 100.726 68.3759 100.516 67.4213L99.6454 63.4611C99.5195 62.8947 99.6087 62.3019 99.9023 61.7932L103.547 55.4149C104.15 54.3554 105.487 53.9358 106.588 54.4603L111.056 56.5899C111.78 56.9361 112.273 57.6179 112.372 58.41C112.472 59.2072 112.168 59.9835 111.549 60.4976C110.159 61.6568 106.725 64.7252 104.837 68.0665C104.417 68.8165 103.641 69.2571 102.807 69.2571L102.813 69.2624ZM102.786 63.0887L103.169 64.8354C104.858 62.4226 106.997 60.314 108.591 58.903L105.912 57.6232L102.792 63.0887H102.786Z" fill="#111C1A"/>
<path d="M133.121 110.369C133.121 128.801 119.429 136.039 102.533 136.039C85.6371 136.039 71.9453 128.801 71.9453 110.369C71.9453 94.3239 91.3163 69.2936 102.533 69.2936C119.424 69.2936 133.121 91.9373 133.121 110.369Z" fill="#9CDE9B"/>
<path d="M88.8479 135.672C88.6906 135.672 88.5281 135.646 88.3655 135.594C76.5982 131.801 70.3789 123.078 70.3789 110.369C70.3789 102.601 74.6422 92.315 81.7844 82.8683C87.3167 75.5459 95.6755 67.72 102.54 67.72C112.697 67.72 122.613 75.3361 129.074 88.0925C129.467 88.8688 129.158 89.813 128.382 90.2064C127.606 90.5998 126.662 90.2903 126.268 89.514C120.448 78.0112 111.355 70.8619 102.54 70.8619C97.836 70.8619 90.6781 76.3169 84.2962 84.7565C77.6522 93.5476 73.5252 103.356 73.5252 110.359C73.5252 121.73 78.8426 129.21 89.3304 132.588C90.1589 132.855 90.6099 133.742 90.3477 134.571C90.1327 135.237 89.5139 135.662 88.8532 135.662L88.8479 135.672Z" fill="#111C1A"/>
<path d="M93.7861 64.8462C92.9995 64.8462 92.3178 64.2535 92.2234 63.4509C92.1238 62.5855 92.7426 61.8092 93.6078 61.7095L100.939 60.8703C101.799 60.7654 102.58 61.3896 102.68 62.255C102.779 63.1205 102.161 63.8968 101.295 63.9964L93.9644 64.8357C93.9015 64.8409 93.8438 64.8462 93.7809 64.8462H93.7861Z" fill="#111C1A"/>
<path d="M67.2633 76.9416C64.2062 76.9416 61.2853 76.4328 58.5427 75.41C58.1127 75.2527 57.7771 74.9117 57.6198 74.4869C57.4625 74.0567 57.494 73.5847 57.7142 73.1808C59.1353 70.5844 62.0929 65.1818 68.1129 61.657C75.3757 57.4083 84.6784 57.3139 95.764 61.3737C96.2779 61.5626 96.6554 62.0032 96.7656 62.5329C96.8757 63.068 96.7026 63.6187 96.3041 63.9964C96.1048 64.1799 91.401 68.586 84.4424 72.2314C78.4643 75.3576 72.6593 76.9416 67.2686 76.9416H67.2633ZM61.4059 73.0339C73.986 76.4853 87.122 67.411 92.0828 63.4509C83.079 60.6394 75.554 60.9489 69.6965 64.374C65.4699 66.8445 62.9162 70.4795 61.4059 73.0287V73.0339Z" fill="#111C1A"/>
</svg>
