<svg width="236" height="137" viewBox="0 0 236 137" fill="none" xmlns="http://www.w3.org/2000/svg">
<g clip-path="url(#clip0_2100_1919)">
<path d="M75.5664 25.0751C75.3739 25.0751 75.1727 25.0576 74.9715 25.0314C73.3529 24.7863 72.0843 23.5962 71.7344 22.0035L70.2821 15.3964C70.0721 14.4513 70.2208 13.4624 70.7108 12.6136L76.7912 1.97224C77.7973 0.204524 80.0283 -0.495563 81.8656 0.379546L89.3196 3.93249C90.5269 4.51006 91.3493 5.6477 91.5155 6.96912C91.6818 8.29928 91.1743 9.59445 90.142 10.4521C87.8235 12.386 82.093 17.5054 78.9434 23.0799C78.2435 24.3313 76.9487 25.0664 75.5576 25.0664L75.5664 25.0751ZM75.5226 14.7751L76.1613 17.6892C78.9784 13.6637 82.548 10.1458 85.2076 7.79172L80.7369 5.65645L75.5314 14.7751H75.5226Z" fill="white"/>
<path d="M52.2646 135.872C52.0021 135.872 51.7309 135.829 51.4597 135.741C31.8273 129.414 21.4512 114.861 21.4512 93.6572C21.4512 80.6968 28.564 63.5359 40.4799 47.7752C49.71 35.5587 63.6556 22.5021 75.1079 22.5021C92.0544 22.5021 108.598 35.2087 119.377 56.4913C120.033 57.7865 119.517 59.3617 118.222 60.018C116.927 60.6743 115.353 60.158 114.696 58.8629C104.985 39.6717 89.8147 27.744 75.1079 27.744C67.2601 27.744 55.318 36.8451 44.6706 50.9256C33.5858 65.5924 26.7005 81.957 26.7005 93.6397C26.7005 112.612 35.5718 125.091 53.0695 130.727C54.4518 131.173 55.2042 132.652 54.7668 134.035C54.4081 135.146 53.3757 135.855 52.2734 135.855L52.2646 135.872Z" fill="white"/>
<path d="M60.5075 17.7067C59.1952 17.7067 58.0579 16.7178 57.9004 15.3789C57.7341 13.9349 58.7665 12.6398 60.2101 12.4735L72.441 11.0733C73.8758 10.8983 75.1793 11.9397 75.3456 13.3836C75.5118 14.8276 74.4794 16.1227 73.0359 16.289L60.805 17.6892C60.7 17.6979 60.6038 17.7067 60.4988 17.7067H60.5075Z" fill="white"/>
<path d="M16.2571 37.8864C11.1565 37.8864 6.28339 37.0375 1.70774 35.3311C0.990339 35.0685 0.430413 34.4997 0.167947 33.7909C-0.0945183 33.0733 -0.0420252 32.2857 0.325426 31.6119C2.69636 27.2801 7.63071 18.2665 17.6744 12.3857C29.7915 5.29734 45.312 5.13982 63.8071 11.9132C64.6644 12.2282 65.2944 12.9633 65.4781 13.8472C65.6618 14.7398 65.3731 15.6586 64.7082 16.2887C64.3757 16.595 56.528 23.9459 44.9183 30.0279C34.9446 35.2436 25.2596 37.8864 16.2658 37.8864H16.2571ZM6.48461 31.3668C27.4731 37.125 49.389 21.9857 57.6654 15.3786C42.6436 10.688 30.089 11.2043 20.3165 16.9188C13.265 21.0405 9.00428 27.1051 6.48461 31.3581V31.3668Z" fill="white"/>
<path d="M57.4024 71.9047C54.7865 71.9047 52.3893 72.4385 50.1933 73.5149C48.0499 74.5912 46.3438 76.1052 45.084 78.0654V72.6047H38.7148V110.97H45.084V89.7569C45.084 85.7401 46.0639 82.686 48.0236 80.5857C50.0271 78.4855 52.713 77.4354 56.0726 77.4354C59.4321 77.4354 61.9955 78.4592 63.9115 80.5157C65.8275 82.5197 66.7811 85.4426 66.7811 89.2668V110.97H73.0803V88.3567C73.0803 83.036 71.6368 78.9755 68.7409 76.1752C65.845 73.3311 62.0655 71.9047 57.4024 71.9047Z" fill="white"/>
<path d="M111.129 93.6779C111.129 97.6946 110.149 100.749 108.19 102.849C106.23 104.949 103.544 105.999 100.141 105.999C96.7373 105.999 94.2176 104.993 92.3016 102.989C90.3856 100.933 89.432 98.0184 89.432 94.2379V72.6052H83.1328V95.078C83.1328 98.6222 83.8065 101.633 85.1625 104.109C86.5624 106.586 88.4521 108.45 90.8318 109.71C93.2115 110.926 95.8974 111.53 98.8807 111.53C101.497 111.53 103.876 110.996 106.02 109.92C108.216 108.8 109.913 107.26 111.129 105.299V110.97H117.498V72.6052H111.129V93.6779Z" fill="white"/>
<path d="M136.028 62.9422H129.659V72.6034H124.689V77.8541H129.659V100.467C129.659 104.204 130.542 106.881 132.318 108.518C134.094 110.154 136.754 110.968 140.297 110.968H146.037V105.578H141.347C139.388 105.578 138.014 105.201 137.218 104.457C136.422 103.661 136.028 102.331 136.028 100.467V77.8541H146.037V72.6034H136.028V62.9422Z" fill="white"/>
<path d="M160.123 78.8355V72.6047H153.754V110.97H160.123V90.1069C160.123 82.3622 163.693 78.4855 170.832 78.4855H172.511V71.9047C169.528 71.9047 166.982 72.5085 164.882 73.7249C162.826 74.9413 161.243 76.639 160.123 78.8355Z" fill="white"/>
<path d="M183.148 57.6921C181.932 57.6921 180.908 58.1122 180.068 58.9523C179.229 59.7924 178.809 60.8163 178.809 62.0327C178.809 63.2491 179.229 64.273 180.068 65.1131C180.908 65.9532 181.932 66.3732 183.148 66.3732C184.364 66.3732 185.291 65.9532 186.088 65.1131C186.928 64.273 187.347 63.2491 187.347 62.0327C187.347 60.8163 186.928 59.7924 186.088 58.9523C185.291 58.1122 184.312 57.6921 183.148 57.6921Z" fill="white"/>
<path d="M186.229 72.6052H179.859V110.97H186.229V72.6052Z" fill="white"/>
<path d="M233.621 81.3557C232.038 78.3716 229.842 76.0613 227.042 74.4249C224.286 72.7884 221.206 71.9745 217.803 71.9745C214.4 71.9745 211.574 72.7184 209.054 74.2148C206.578 75.6588 204.715 77.479 203.455 79.6755V72.6046H197.086V129.172H203.455V103.899C204.759 106.095 206.648 107.933 209.124 109.429C211.644 110.873 214.54 111.599 217.803 111.599C221.067 111.599 224.286 110.759 227.042 109.079C229.842 107.399 232.038 105.045 233.621 102.008C235.205 98.9717 236.001 95.5237 236.001 91.647C236.001 87.7703 235.205 84.2961 233.621 81.3557ZM227.742 99.348C226.578 101.492 224.986 103.155 222.983 104.319C221.023 105.439 218.853 105.999 216.473 105.999C214.094 105.999 211.968 105.439 209.964 104.319C208.004 103.155 206.421 101.492 205.205 99.348C204.041 97.1514 203.455 94.6136 203.455 91.717C203.455 88.8204 204.041 86.3701 205.205 84.2261C206.421 82.0296 208.004 80.3756 209.964 79.2555C211.968 78.0916 214.137 77.5052 216.473 77.5052C218.809 77.5052 221.023 78.0653 222.983 79.1855C224.986 80.3056 226.578 81.942 227.742 84.0861C228.905 86.2301 229.492 88.7504 229.492 91.647C229.492 94.5436 228.905 97.1514 227.742 99.348Z" fill="white"/>
</g>
<defs>
<clipPath id="clip0_2100_1919">
<rect width="236" height="136.482" fill="white" transform="translate(0 0.00323486)"/>
</clipPath>
</defs>
</svg>
