<svg width="35" height="32" viewBox="0 0 35 32" fill="none" xmlns="http://www.w3.org/2000/svg">
<path d="M24.0371 31.2608C29.8355 31.2608 34.5601 26.8348 34.5601 21.4029V10.5994C34.5601 5.16752 29.8355 0.741516 24.0371 0.741516H10.9585C5.16016 0.741516 0.435547 5.16752 0.435547 10.5994V21.4029C0.435547 26.8348 5.16016 31.2608 10.9585 31.2608H24.0371ZM2.7549 21.4029V10.5994C2.7549 6.37461 6.42721 2.9344 10.9371 2.9344H24.0156C28.5255 2.9344 32.1978 6.37461 32.1978 10.5994V21.4029C32.1978 25.6277 28.5255 29.0679 24.0156 29.0679H10.9371C6.44868 29.0679 2.7549 25.6277 2.7549 21.4029Z" fill="white"/>
<path d="M26.7218 9.3133C27.7956 9.3133 28.6761 8.48846 28.6761 7.48255C28.6761 6.47664 27.7956 5.65179 26.7218 5.65179C25.6481 5.65179 24.7676 6.47664 24.7676 7.48255C24.7891 8.48846 25.6481 9.3133 26.7218 9.3133Z" fill="white"/>
<path d="M26.8731 15.9907C26.8731 11.1423 22.6639 7.1991 17.4883 7.1991C12.3127 7.1991 8.10352 11.1423 8.10352 15.9907C8.10352 20.8392 12.3127 24.7824 17.4883 24.7824C22.6639 24.7824 26.8731 20.8392 26.8731 15.9907ZM10.4658 15.9907C10.4658 12.3494 13.6227 9.39198 17.5098 9.39198C21.3968 9.39198 24.5537 12.3494 24.5537 15.9907C24.5537 19.6321 21.3968 22.5895 17.5098 22.5895C13.6227 22.5895 10.4658 19.6321 10.4658 15.9907Z" fill="white"/>
</svg>
